<?xml version="1.0"?><svg id="Layer_2" xmlns="http://www.w3.org/2000/svg" viewBox="0 0 151.36 42.03"><defs></defs><g id="Navigation_Structure"><path class="cls-1" d="M58.49,4.33v2.22h-24.41v-2.22h24.41Z"></path><path class="cls-1" d="M15.39,11.7c7.51,0,11.29,3.9,11.29,3.9l-3.45,5.38s-3-2.71-7.14-2.71c-6.16,0-8.66,3.94-8.66,8.29,0,5.58,3.86,8.91,8.42,8.91,3.45,0,5.95-2.13,5.95-2.13v-2.26h-4.15v-6.12h10.51v16.59h-5.99v-.82c0-.62.04-1.23.04-1.23h-.08s-2.83,2.55-7.72,2.55c-7.51,0-14.41-5.62-14.41-15.23,0-8.54,6.45-15.11,15.39-15.11Z"></path><path class="cls-1" d="M50.67,35.38h-9.15l-1.77,6.16h-7.39l9.98-29.35h7.55l9.98,29.35h-7.39l-1.81-6.16ZM46.07,18.88s-.66,3.2-1.19,5.05l-1.68,5.71h5.79l-1.64-5.71c-.53-1.85-1.19-5.05-1.19-5.05h-.08Z"></path><path class="cls-1" d="M65.19,12.19h10.8c5.87,0,9.98,2.63,9.98,7.68,0,2.46-1.19,4.97-3.41,6.24v.08c3.37,1.03,4.6,4.02,4.6,6.61,0,6.4-5.34,8.74-11.17,8.74h-10.8V12.19ZM76.07,23.56c1.81,0,2.59-1.31,2.59-2.71s-.78-2.5-2.71-2.5h-3.57v5.21h3.7ZM76.69,35.38c2.09,0,3.12-1.44,3.12-3.08s-.99-3-3.08-3h-4.35v6.08h4.31Z"></path><path class="cls-1" d="M92.24,12.19h7.18v29.35h-7.18V12.19Z"></path><path class="cls-1" d="M119.75,11.7c7.51,0,11.29,3.9,11.29,3.9l-3.45,5.38s-3-2.71-7.14-2.71c-6.16,0-8.66,3.94-8.66,8.29,0,5.58,3.86,8.91,8.42,8.91,3.45,0,5.95-2.13,5.95-2.13v-2.26h-4.15v-6.12h10.51v16.59h-5.99v-.82c0-.62.04-1.23.04-1.23h-.08s-2.83,2.55-7.72,2.55c-7.51,0-14.41-5.62-14.41-15.23,0-8.54,6.45-15.11,15.39-15.11Z"></path><path class="cls-1" d="M151.19,41.93h-8.66v-3.13c0-.51.05-.94.16-1.3.1-.36.25-.66.45-.88.19-.23.42-.39.69-.5s.56-.16.88-.16.57.04.79.12c.22.08.41.18.55.31s.26.27.35.44c.08.16.14.33.17.51h.02c.09-.6.32-1.05.71-1.34.38-.29.87-.44,1.44-.44.45,0,.83.07,1.14.21.31.14.57.34.76.58.19.25.33.55.41.9s.13.73.13,1.14v3.54ZM146.36,41.11v-2.07c0-.42-.04-.78-.11-1.07-.07-.29-.18-.52-.32-.7-.14-.18-.31-.3-.52-.38-.2-.08-.44-.11-.7-.11s-.5.04-.69.13c-.19.09-.34.23-.46.42-.12.19-.2.44-.25.75s-.08.69-.08,1.14v1.89h3.13ZM150.5,41.11v-2.08c0-.45-.02-.84-.06-1.17-.04-.33-.12-.61-.25-.82-.12-.22-.3-.38-.53-.49-.23-.11-.53-.16-.91-.16s-.65.06-.87.18-.39.29-.51.52c-.12.22-.2.49-.25.81s-.07.66-.07,1.05v2.18h3.44Z"></path><path class="cls-1" d="M148.25,33.57c.34,0,.66-.04.96-.13.3-.09.56-.22.78-.39s.4-.39.53-.66c.13-.26.2-.57.2-.91,0-.47-.12-.88-.37-1.21-.25-.34-.6-.56-1.06-.67v-.81c.3.09.57.2.82.35.25.14.47.32.66.54.19.22.33.47.44.77s.16.64.16,1.03c0,.5-.08.93-.25,1.29-.17.36-.4.66-.69.89-.29.23-.64.4-1.03.52-.4.11-.82.17-1.28.17s-.89-.07-1.29-.2c-.4-.13-.75-.32-1.05-.57s-.54-.54-.71-.9c-.17-.35-.26-.75-.26-1.2,0-.86.29-1.53.88-2.02.59-.49,1.45-.73,2.57-.72v4.83ZM147.65,29.5c-.3,0-.59.04-.86.13-.27.08-.5.21-.7.37-.2.16-.35.37-.47.62-.12.25-.17.53-.17.85s.06.6.18.85c.12.24.28.45.48.63.2.17.43.31.7.41.26.1.55.17.84.2v-4.06Z"></path><path class="cls-1" d="M151.22,25.14c.02.09.04.2.08.35.04.14.06.3.06.48,0,.36-.09.64-.27.82-.18.19-.5.28-.97.28h-4.56v.88h-.6v-.88h-1.73v-.72h1.73v-1.17h.6v1.17h4.27c.15,0,.28,0,.4-.01.11,0,.2-.03.28-.07.07-.04.12-.1.16-.19.03-.08.05-.2.05-.35,0-.1,0-.19-.02-.29s-.04-.2-.06-.29h.59Z"></path><path class="cls-1" d="M147.56,21.12c-.02-.14-.04-.3-.07-.49-.03-.19-.08-.34-.13-.46-.06-.12-.15-.19-.28-.22-.13-.03-.25-.04-.37-.04-.37,0-.67.12-.91.35-.24.24-.35.64-.35,1.2,0,.25.02.48.07.69.04.21.12.39.23.55.11.16.25.28.43.38.18.1.41.17.68.2v.73c-.37-.02-.68-.11-.94-.25-.26-.14-.47-.33-.64-.56-.16-.23-.28-.49-.36-.79-.08-.3-.11-.62-.11-.96,0-.31.03-.61.1-.88.07-.28.18-.52.32-.72.15-.2.35-.36.6-.48.25-.12.55-.17.91-.17h3.39c.28,0,.46-.05.53-.15.08-.1.06-.3-.05-.61h.57c.02.06.04.14.07.25.03.11.05.21.05.32,0,.11-.01.22-.04.32-.02.12-.05.22-.11.29-.06.07-.13.13-.22.17-.08.04-.18.07-.28.09-.1.02-.21.02-.32.02.34.31.59.65.77,1.05.18.39.26.82.26,1.27,0,.27-.04.53-.11.79-.07.25-.18.48-.34.67-.15.19-.34.34-.56.46-.22.11-.48.17-.79.17-1.06,0-1.68-.73-1.88-2.18l-.13-1ZM147.92,19.91c.13.31.21.61.25.93.04.31.07.63.1.94.04.55.16.98.37,1.29.21.31.53.46.95.46.19,0,.36-.04.5-.11.14-.08.26-.18.35-.3.09-.12.16-.27.2-.43.04-.16.07-.33.07-.5,0-.29-.04-.57-.11-.84s-.18-.52-.33-.73c-.15-.21-.34-.38-.57-.51-.23-.13-.5-.19-.81-.19h-.97Z"></path><path class="cls-1" d="M58.49,0v2.22h-24.41V0h24.41Z"></path></g></svg>