<svg width="29" height="42" viewBox="0 0 29 42" fill="#7864DC" xmlns="http://www.w3.org/2000/svg">
<path d="M15.39 10.7C22.9 10.7 26.68 14.6 26.68 14.6L23.23 19.98C23.23 19.98 20.23 17.27 16.09 17.27C9.93 17.27 7.43 21.21 7.43 25.56C7.43 31.14 11.29 34.47 15.85 34.47C19.3 34.47 21.8 32.34 21.8 32.34V30.08H17.65V23.96H28.16V40.55H22.17V39.73C22.17 39.11 22.21 38.5 22.21 38.5H22.13C22.13 38.5 19.3 41.05 14.41 41.05C6.9 41.05 0 35.43 0 25.82C0 17.28 6.45 10.71 15.39 10.71V10.7Z"></path>
<path d="M27.72 4.32996V6.54996H1.71997V4.32996H27.72Z"></path>
<path d="M27.72 0V2.22H1.71997V0H27.72Z"></path>
</svg>